<?xml version="1.0" standalone="no"?><!DOCTYPE svg PUBLIC "-//W3C//DTD SVG 1.1//EN" "http://www.w3.org/Graphics/SVG/1.1/DTD/svg11.dtd"><svg t="1715697525991" class="icon" viewBox="0 0 1024 1024" version="1.1" xmlns="http://www.w3.org/2000/svg" p-id="6184" xmlns:xlink="http://www.w3.org/1999/xlink" width="200" height="200"><path d="M757.76 1024H266.24c-81.92 0-146.773333-64.853333-146.773333-146.773333V146.773333C119.466667 64.853333 184.32 0 266.24 0h491.52c81.92 0 146.773333 64.853333 146.773333 146.773333v730.453334c0 81.92-64.853333 146.773333-146.773333 146.773333zM266.24 34.133333C204.8 34.133333 153.6 85.333333 153.6 146.773333v730.453334C153.6 938.666667 204.8 989.866667 266.24 989.866667h491.52c61.44 0 112.64-51.2 112.64-112.64V146.773333C870.4 85.333333 819.2 34.133333 757.76 34.133333H266.24z" fill="" p-id="6185"></path><path d="M768 409.6H249.173333c-34.133333 0-61.44-27.306667-61.44-61.44V129.706667c0-34.133333 27.306667-61.44 61.44-61.44h529.066667c34.133333 0 61.44 27.306667 61.44 61.44v228.693333c-3.413333 34.133333-37.546667 51.2-71.68 51.2zM249.173333 102.4c-17.066667 0-27.306667 10.24-27.306666 27.306667v221.866666c0 13.653333 10.24 27.306667 27.306666 27.306667h518.826667c13.653333 0 34.133333-6.826667 34.133333-17.066667V129.706667c0-13.653333-10.24-27.306667-27.306666-27.306667H249.173333z" fill="" p-id="6186"></path><path d="M682.666667 170.666667h-34.133334c-10.24 0-17.066667-6.826667-17.066666-17.066667s6.826667-17.066667 17.066666-17.066667h34.133334c10.24 0 17.066667 6.826667 17.066666 17.066667s-6.826667 17.066667-17.066666 17.066667zM682.666667 341.333333h-34.133334c-10.24 0-17.066667-6.826667-17.066666-17.066666s6.826667-17.066667 17.066666-17.066667h34.133334c10.24 0 17.066667 6.826667 17.066666 17.066667s-6.826667 17.066667-17.066666 17.066666zM716.8 307.2c-10.24 0-17.066667-6.826667-17.066667-17.066667v-102.4c0-10.24 6.826667-17.066667 17.066667-17.066666s17.066667 6.826667 17.066667 17.066666v102.4c0 10.24-6.826667 17.066667-17.066667 17.066667zM614.4 307.2c-10.24 0-17.066667-6.826667-17.066667-17.066667v-102.4c0-10.24 6.826667-17.066667 17.066667-17.066666s17.066667 6.826667 17.066667 17.066666v102.4c0 10.24-6.826667 17.066667-17.066667 17.066667zM331.093333 682.666667H283.306667c-34.133333 0-61.44-27.306667-61.44-61.44v-44.373334c0-34.133333 27.306667-61.44 61.44-61.44h44.373333c34.133333 0 61.44 27.306667 61.44 61.44v44.373334c3.413333 34.133333-23.893333 61.44-58.026667 61.44z m-47.786666-136.533334c-17.066667 0-27.306667 13.653333-27.306667 27.306667v44.373333c0 17.066667 13.653333 27.306667 27.306667 27.306667h44.373333c17.066667 0 27.306667-13.653333 27.306667-27.306667v-44.373333c0-17.066667-13.653333-27.306667-27.306667-27.306667H283.306667zM535.893333 682.666667h-44.373333c-34.133333 0-61.44-27.306667-61.44-61.44v-44.373334c0-34.133333 27.306667-61.44 61.44-61.44h44.373333c34.133333 0 61.44 27.306667 61.44 61.44v44.373334c0 34.133333-27.306667 61.44-61.44 61.44z m-47.786666-136.533334c-17.066667 0-27.306667 13.653333-27.306667 27.306667v44.373333c0 17.066667 13.653333 27.306667 27.306667 27.306667h44.373333c17.066667 0 27.306667-13.653333 27.306667-27.306667v-44.373333c0-17.066667-13.653333-27.306667-27.306667-27.306667h-44.373333zM740.693333 682.666667h-44.373333c-34.133333 0-61.44-27.306667-61.44-61.44v-44.373334c0-34.133333 27.306667-61.44 61.44-61.44h44.373333c34.133333 0 61.44 27.306667 61.44 61.44v44.373334c0 34.133333-27.306667 61.44-61.44 61.44z m-47.786666-136.533334c-17.066667 0-27.306667 13.653333-27.306667 27.306667v44.373333c0 17.066667 13.653333 27.306667 27.306667 27.306667h44.373333c17.066667 0 27.306667-13.653333 27.306667-27.306667v-44.373333c0-17.066667-13.653333-27.306667-27.306667-27.306667h-44.373333zM331.093333 887.466667H283.306667c-34.133333 0-61.44-27.306667-61.44-61.44v-44.373334c0-34.133333 27.306667-61.44 61.44-61.44h44.373333c34.133333 0 61.44 27.306667 61.44 61.44v44.373334c3.413333 34.133333-23.893333 61.44-58.026667 61.44z m-47.786666-136.533334c-17.066667 0-27.306667 13.653333-27.306667 27.306667v44.373333c0 17.066667 13.653333 27.306667 27.306667 27.306667h44.373333c17.066667 0 27.306667-13.653333 27.306667-27.306667v-44.373333c0-17.066667-13.653333-27.306667-27.306667-27.306667H283.306667zM535.893333 887.466667h-44.373333c-34.133333 0-61.44-27.306667-61.44-61.44v-44.373334c0-34.133333 27.306667-61.44 61.44-61.44h44.373333c34.133333 0 61.44 27.306667 61.44 61.44v44.373334c0 34.133333-27.306667 61.44-61.44 61.44z m-47.786666-136.533334c-17.066667 0-27.306667 13.653333-27.306667 27.306667v44.373333c0 17.066667 13.653333 27.306667 27.306667 27.306667h44.373333c17.066667 0 27.306667-13.653333 27.306667-27.306667v-44.373333c0-17.066667-13.653333-27.306667-27.306667-27.306667h-44.373333zM740.693333 887.466667h-44.373333c-34.133333 0-61.44-27.306667-61.44-61.44v-44.373334c0-34.133333 27.306667-61.44 61.44-61.44h44.373333c34.133333 0 61.44 27.306667 61.44 61.44v44.373334c0 34.133333-27.306667 61.44-61.44 61.44z m-47.786666-136.533334c-17.066667 0-27.306667 13.653333-27.306667 27.306667v44.373333c0 17.066667 13.653333 27.306667 27.306667 27.306667h44.373333c17.066667 0 27.306667-13.653333 27.306667-27.306667v-44.373333c0-17.066667-13.653333-27.306667-27.306667-27.306667h-44.373333z" fill="" p-id="6187"></path></svg>